# xmcd
# 
# Track frame offsets:
#     150
#     20985
#     44145
#     70655
#     89017
#     106867
#     132922
#     153642
#     172445
#     191087
# 
# Disc length: 2840
# 
# Revision: 3
# Processed by: cddbd v1.5.2PL0 Copyright (c) Steve Scherf et al.
# Submitted via: fre:ac v1.0.27
# 
DISCID=9a0b160a
DTITLE=黃鶯鶯 - 讓愛自由
DYEAR=1990
DGENRE=POP
TTITLE0=哭砂
TTITLE1=寧願鎖上
TTITLE2=風的心
TTITLE3=不問不說
TTITLE4=你為何不要
TTITLE5=讓愛自由
TTITLE6=三年三月到九天九月
TTITLE7=再見還是不見
TTITLE8=聽你說你的愛
TTITLE9=藏好一個春天
EXTD=
EXTT0=
EXTT1=
EXTT2=
EXTT3=
EXTT4=
EXTT5=
EXTT6=
EXTT7=
EXTT8=
EXTT9=
PLAYORDER=
